<svg width="15" height="20" viewBox="0 0 15 20" fill="none" xmlns="http://www.w3.org/2000/svg">
<path d="M7.24326 0C3.24929 0 0 3.2493 0 7.2432C0 12.1998 6.48196 19.4763 6.75796 19.7836C7.01716 20.0723 7.46976 20.0718 7.72856 19.7836C8.00446 19.4763 14.4865 12.1998 14.4865 7.2432C14.4864 3.2493 11.2372 0 7.24326 0ZM7.24326 10.8875C5.23378 10.8875 3.59902 9.2527 3.59902 7.2432C3.59902 5.23375 5.23382 3.59898 7.24326 3.59898C9.25266 3.59898 10.8875 5.23379 10.8875 7.24324C10.8875 9.2527 9.25266 10.8875 7.24326 10.8875Z" fill="#E44533"/>
</svg>
