<svg width="36" height="40" viewBox="0 0 36 40" fill="none" xmlns="http://www.w3.org/2000/svg">
<path d="M9.84375 30.4219C9.2925 31.6719 9 33.1016 9 34.5703C8.4375 34.8438 7.83 35 7.2 35C4.21875 35 1.8 31.6406 1.8 27.5V5C0.804375 5 0 3.88281 0 2.5C0 1.11719 0.804375 0 1.8 0H5.4H9H12.6C13.5956 0 14.4 1.11719 14.4 2.5C14.4 3.88281 13.5956 5 12.6 5V24.2109L9.84375 30.4297V30.4219ZM5.4 5V12.5H9V5H5.4ZM19.8 0H27H28.8C29.7956 0 30.6 1.11719 30.6 2.5C30.6 3.88281 29.7956 5 28.8 5V16.7891L35.4206 31.7344C35.7975 32.5859 36 33.5703 36 34.5781C36 37.5703 34.2506 40 32.0962 40H14.7037C12.5494 40 10.8 37.5703 10.8 34.5781C10.8 33.5781 11.0025 32.5938 11.3794 31.7344L18 16.7891V5C17.0044 5 16.2 3.88281 16.2 2.5C16.2 1.11719 17.0044 0 18 0H19.8ZM21.6 5V17.5C21.6 17.9609 21.51 18.4141 21.3356 18.8125L18.5906 25H28.2094L25.4644 18.8125C25.29 18.4219 25.2 17.9688 25.2 17.5V5H21.6Z" fill="#E44533"/>
</svg>
