<svg width="25" height="26" viewBox="0 0 25 26" fill="none" xmlns="http://www.w3.org/2000/svg">
<path d="M21.2556 4.31016C18.9174 2.01328 15.8036 0.75 12.4944 0.75C5.66406 0.75 0.106027 6.19687 0.106027 12.8906C0.106027 15.0289 0.675223 17.118 1.75781 18.9609L0 25.25L6.56808 23.5602C8.37612 24.5281 10.4129 25.0367 12.4888 25.0367H12.4944C19.3192 25.0367 25 19.5898 25 12.8961C25 9.65313 23.5937 6.60703 21.2556 4.31016ZM12.4944 22.9914C10.6417 22.9914 8.82812 22.5047 7.24888 21.5859L6.875 21.3672L2.97991 22.368L4.01786 18.6438L3.77232 18.2609C2.73996 16.6531 2.19866 14.7992 2.19866 12.8906C2.19866 7.32891 6.8192 2.80078 12.5 2.80078C15.2511 2.80078 17.8348 3.85078 19.7768 5.75937C21.7187 7.66797 22.9129 10.2 22.9074 12.8961C22.9074 18.4633 18.1696 22.9914 12.4944 22.9914ZM18.1417 15.4336C17.8348 15.2805 16.3114 14.5477 16.0268 14.4492C15.7422 14.3453 15.5357 14.2961 15.3292 14.6023C15.1228 14.9086 14.5313 15.5867 14.3471 15.7945C14.1685 15.9969 13.9844 16.0242 13.6775 15.8711C11.8583 14.9797 10.6641 14.2797 9.46429 12.2617C9.14621 11.7258 9.78237 11.7641 10.3739 10.6047C10.4743 10.4023 10.4241 10.2273 10.346 10.0742C10.2679 9.92109 9.64844 8.42813 9.39174 7.82109C9.14063 7.23047 8.88393 7.3125 8.6942 7.30156C8.51563 7.29063 8.30915 7.29063 8.10268 7.29063C7.89621 7.29063 7.56138 7.36719 7.27679 7.66797C6.99219 7.97422 6.1942 8.70703 6.1942 10.2C6.1942 11.693 7.30469 13.1367 7.45536 13.3391C7.61161 13.5414 9.63728 16.6039 12.7455 17.9219C14.7098 18.7531 15.4799 18.8242 16.4621 18.682C17.0592 18.5945 18.2924 17.9492 18.5491 17.2383C18.8058 16.5273 18.8058 15.9203 18.7277 15.7945C18.6551 15.6578 18.4487 15.5813 18.1417 15.4336Z" fill="#E44533"/>
</svg>
